<svg width="32" height="32" viewBox="0 0 32 32" fill="none" xmlns="http://www.w3.org/2000/svg">
<path d="M24.6667 7.33325H26.6667C27.0203 7.33325 27.3594 7.47373 27.6095 7.72378C27.8595 7.97383 28 8.31296 28 8.66659V23.3666C28 25.4795 27.1607 27.5058 25.6666 28.9999C24.1726 30.4939 22.1462 31.3333 20.0333 31.3333H5.33333C4.97971 31.3333 4.64057 31.1928 4.39052 30.9427C4.14048 30.6927 4 30.3535 4 29.9999V8.66659C4 8.31296 4.14048 7.97383 4.39052 7.72378C4.64057 7.47373 4.97971 7.33325 5.33333 7.33325H16.6667" fill="#201F1F"/>
<path d="M26.6667 7.33325H5.33333C4.97971 7.33325 4.64057 7.47373 4.39052 7.72378C4.14048 7.97383 4 8.31296 4 8.66659V29.9999C4.00447 30.2916 4.10684 30.5734 4.29067 30.7999L27.4667 7.62392C27.2404 7.43963 26.9585 7.33721 26.6667 7.33325Z" fill="#17161A"/>
<path d="M24.6667 7.33325H26.6667C27.0203 7.33325 27.3594 7.47373 27.6095 7.72378C27.8595 7.97383 28 8.31296 28 8.66659V23.3666C28 25.4795 27.1607 27.5058 25.6666 28.9999C24.1726 30.4939 22.1462 31.3333 20.0333 31.3333H5.33333C4.97971 31.3333 4.64057 31.1928 4.39052 30.9427C4.14048 30.6927 4 30.3535 4 29.9999V8.66659C4 8.31296 4.14048 7.97383 4.39052 7.72378C4.64057 7.47373 4.97971 7.33325 5.33333 7.33325H16.6667" stroke="#FF7875" stroke-linecap="round" stroke-linejoin="round"/>
<path d="M16.6666 13.3334L21.3333 4.66675" stroke="#FF7875" stroke-linecap="round" stroke-linejoin="round"/>
<path d="M22 6.00008C22.5275 6.00008 23.043 5.84368 23.4816 5.55067C23.9201 5.25765 24.2619 4.84117 24.4637 4.3539C24.6656 3.86664 24.7184 3.33046 24.6155 2.81317C24.5126 2.29589 24.2586 1.82074 23.8857 1.4478C23.5127 1.07486 23.0376 0.820882 22.5203 0.717988C22.003 0.615095 21.4668 0.667903 20.9796 0.869737C20.4923 1.07157 20.0758 1.41336 19.7828 1.8519C19.4898 2.29043 19.3334 2.806 19.3334 3.33342C19.3334 4.04066 19.6143 4.71894 20.1144 5.21903C20.6145 5.71913 21.2928 6.00008 22 6.00008Z" fill="#2C2828" stroke="#FF7875" stroke-linecap="round" stroke-linejoin="round"/>
<path d="M27.8827 24.6667C27.6148 26.3067 26.8384 27.821 25.6632 28.9957C24.488 30.1704 22.9734 30.9462 21.3334 31.2134V26.0001C21.3334 25.6465 21.4738 25.3073 21.7239 25.0573C21.9739 24.8072 22.3131 24.6667 22.6667 24.6667H27.8827Z" fill="#2C2828" stroke="#FF7875" stroke-linecap="round" stroke-linejoin="round"/>
<path d="M27.896 24.6667H27.8827" stroke="#FF7875" stroke-linecap="round" stroke-linejoin="round"/>
<path d="M21.3361 31.2267V31.2134" stroke="#FF7875" stroke-linecap="round" stroke-linejoin="round"/>
<path d="M8 16.6667H22.6667" stroke="#FF7875" stroke-linecap="round" stroke-linejoin="round"/>
<path d="M8 20.6667H22.6667" stroke="#FF7875" stroke-linecap="round" stroke-linejoin="round"/>
<path d="M8 24.6667H15.3333" stroke="#FF7875" stroke-linecap="round" stroke-linejoin="round"/>
</svg>
