<svg width="32" height="32" viewBox="0 0 32 32" fill="none" xmlns="http://www.w3.org/2000/svg">
<path d="M24.6667 7.33337H26.6667C27.0203 7.33337 27.3594 7.47385 27.6095 7.7239C27.8595 7.97395 28 8.31309 28 8.66671V23.3667C28 25.4796 27.1607 27.506 25.6666 29C24.1726 30.494 22.1462 31.3334 20.0333 31.3334H5.33333C4.97971 31.3334 4.64057 31.1929 4.39052 30.9429C4.14048 30.6928 4 30.3537 4 30V8.66671C4 8.31309 4.14048 7.97395 4.39052 7.7239C4.64057 7.47385 4.97971 7.33337 5.33333 7.33337H16.6667" fill="#74A8EE" fill-opacity="0.1"/>
<path d="M26.6667 7.33337H5.33333C4.97971 7.33337 4.64057 7.47385 4.39052 7.7239C4.14048 7.97395 4 8.31309 4 8.66671V30C4.00447 30.2918 4.10684 30.5735 4.29067 30.8L27.4667 7.62404C27.2404 7.43976 26.9585 7.33733 26.6667 7.33337Z" fill="#1F1D22"/>
<path d="M24.6667 7.33337H26.6667C27.0203 7.33337 27.3594 7.47385 27.6095 7.7239C27.8595 7.97395 28 8.31309 28 8.66671V23.3667C28 25.4796 27.1607 27.506 25.6666 29C24.1726 30.494 22.1462 31.3334 20.0333 31.3334H5.33333C4.97971 31.3334 4.64057 31.1929 4.39052 30.9429C4.14048 30.6928 4 30.3537 4 30V8.66671C4 8.31309 4.14048 7.97395 4.39052 7.7239C4.64057 7.47385 4.97971 7.33337 5.33333 7.33337H16.6667" stroke="#74A8EE" stroke-linecap="round" stroke-linejoin="round"/>
<path d="M16.6666 13.3333L21.3333 4.66663" stroke="#74A8EE" stroke-linecap="round" stroke-linejoin="round"/>
<path d="M22 5.99996C22.5275 5.99996 23.043 5.84356 23.4816 5.55055C23.9201 5.25753 24.2619 4.84105 24.4637 4.35378C24.6656 3.86651 24.7184 3.33034 24.6155 2.81305C24.5126 2.29577 24.2586 1.82062 23.8857 1.44768C23.5127 1.07474 23.0376 0.82076 22.5203 0.717866C22.003 0.614973 21.4668 0.667781 20.9796 0.869615C20.4923 1.07145 20.0758 1.41324 19.7828 1.85177C19.4898 2.2903 19.3334 2.80588 19.3334 3.33329C19.3334 4.04054 19.6143 4.71881 20.1144 5.21891C20.6145 5.71901 21.2928 5.99996 22 5.99996Z" fill="#2B2930" stroke="#74A8EE" stroke-linecap="round" stroke-linejoin="round"/>
<path d="M27.8827 24.6666C27.6148 26.3065 26.8384 27.8208 25.6632 28.9956C24.488 30.1703 22.9734 30.9461 21.3334 31.2133V26C21.3334 25.6463 21.4738 25.3072 21.7239 25.0571C21.9739 24.8071 22.3131 24.6666 22.6667 24.6666H27.8827Z" fill="#2B2930" stroke="#74A8EE" stroke-linecap="round" stroke-linejoin="round"/>
<path d="M27.896 24.6666H27.8827" stroke="#74A8EE" stroke-linecap="round" stroke-linejoin="round"/>
<path d="M21.3361 31.2267V31.2134" stroke="#74A8EE" stroke-linecap="round" stroke-linejoin="round"/>
<path d="M8 16.6666H22.6667" stroke="#74A8EE" stroke-linecap="round" stroke-linejoin="round"/>
<path d="M8 20.6666H22.6667" stroke="#74A8EE" stroke-linecap="round" stroke-linejoin="round"/>
<path d="M8 24.6666H15.3333" stroke="#74A8EE" stroke-linecap="round" stroke-linejoin="round"/>
</svg>
